<?xml version="1.0" encoding="UTF-8" standalone="no"?>
<!DOCTYPE svg PUBLIC "-//W3C//DTD SVG 1.1//EN"
 "http://www.w3.org/Graphics/SVG/1.1/DTD/svg11.dtd">
<!-- Generated by graphviz version 2.36.0 (20140111.2315)
 -->
<!-- Title: G Pages: 1 -->
<svg width="1158pt" height="2646pt"
 viewBox="0.00 0.00 1158.00 2646.00" xmlns="http://www.w3.org/2000/svg" xmlns:xlink="http://www.w3.org/1999/xlink">
<g id="graph0" class="graph" transform="scale(1 1) rotate(0) translate(4 2642)">
<title>G</title>
<polygon fill="white" stroke="none" points="-4,4 -4,-2642 1154,-2642 1154,4 -4,4"/>
<g id="clust1" class="cluster"><title>cluster_Global</title>
<path fill="none" stroke="gray" d="M561,-692C561,-692 1130,-692 1130,-692 1136,-692 1142,-698 1142,-704 1142,-704 1142,-2618 1142,-2618 1142,-2624 1136,-2630 1130,-2630 1130,-2630 561,-2630 561,-2630 555,-2630 549,-2624 549,-2618 549,-2618 549,-704 549,-704 549,-698 555,-692 561,-692"/>
<text text-anchor="middle" x="845.5" y="-2617.2" font-family="Times,serif" font-size="11.00" fill="gray">Global</text>
</g>
<g id="clust2" class="cluster"><title>cluster_\App</title>
<path fill="none" stroke="gray" d="M569,-1122C569,-1122 1122,-1122 1122,-1122 1128,-1122 1134,-1128 1134,-1134 1134,-1134 1134,-2590 1134,-2590 1134,-2596 1128,-2602 1122,-2602 1122,-2602 569,-2602 569,-2602 563,-2602 557,-2596 557,-2590 557,-2590 557,-1134 557,-1134 557,-1128 563,-1122 569,-1122"/>
<text text-anchor="middle" x="845.5" y="-2589.2" font-family="Times,serif" font-size="11.00" fill="gray">App</text>
</g>
<g id="clust3" class="cluster"><title>cluster_\App\Models</title>
<path fill="none" stroke="gray" d="M992,-1586C992,-1586 1056,-1586 1056,-1586 1062,-1586 1068,-1592 1068,-1598 1068,-1598 1068,-1862 1068,-1862 1068,-1868 1062,-1874 1056,-1874 1056,-1874 992,-1874 992,-1874 986,-1874 980,-1868 980,-1862 980,-1862 980,-1598 980,-1598 980,-1592 986,-1586 992,-1586"/>
<text text-anchor="middle" x="1024" y="-1861.2" font-family="Times,serif" font-size="11.00" fill="gray">Models</text>
</g>
<g id="clust4" class="cluster"><title>cluster_\App\Exceptions</title>
<path fill="none" stroke="gray" d="M996,-1506C996,-1506 1052,-1506 1052,-1506 1058,-1506 1064,-1512 1064,-1518 1064,-1518 1064,-1566 1064,-1566 1064,-1572 1058,-1578 1052,-1578 1052,-1578 996,-1578 996,-1578 990,-1578 984,-1572 984,-1566 984,-1566 984,-1518 984,-1518 984,-1512 990,-1506 996,-1506"/>
<text text-anchor="middle" x="1024" y="-1565.2" font-family="Times,serif" font-size="11.00" fill="gray">Exceptions</text>
</g>
<g id="clust5" class="cluster"><title>cluster_\App\Http</title>
<path fill="none" stroke="gray" d="M577,-1882C577,-1882 1114,-1882 1114,-1882 1120,-1882 1126,-1888 1126,-1894 1126,-1894 1126,-2562 1126,-2562 1126,-2568 1120,-2574 1114,-2574 1114,-2574 577,-2574 577,-2574 571,-2574 565,-2568 565,-2562 565,-2562 565,-1894 565,-1894 565,-1888 571,-1882 577,-1882"/>
<text text-anchor="middle" x="845.5" y="-2561.2" font-family="Times,serif" font-size="11.00" fill="gray">Http</text>
</g>
<g id="clust6" class="cluster"><title>cluster_\App\Http\Requests</title>
<path fill="none" stroke="gray" d="M976,-2286C976,-2286 1072,-2286 1072,-2286 1078,-2286 1084,-2292 1084,-2298 1084,-2298 1084,-2400 1084,-2400 1084,-2406 1078,-2412 1072,-2412 1072,-2412 976,-2412 976,-2412 970,-2412 964,-2406 964,-2400 964,-2400 964,-2298 964,-2298 964,-2292 970,-2286 976,-2286"/>
<text text-anchor="middle" x="1024" y="-2399.2" font-family="Times,serif" font-size="11.00" fill="gray">Requests</text>
</g>
<g id="clust7" class="cluster"><title>cluster_\App\Http\Middleware</title>
<path fill="none" stroke="gray" d="M942,-1936C942,-1936 1106,-1936 1106,-1936 1112,-1936 1118,-1942 1118,-1948 1118,-1948 1118,-2266 1118,-2266 1118,-2272 1112,-2278 1106,-2278 1106,-2278 942,-2278 942,-2278 936,-2278 930,-2272 930,-2266 930,-2266 930,-1948 930,-1948 930,-1942 936,-1936 942,-1936"/>
<text text-anchor="middle" x="1024" y="-2265.2" font-family="Times,serif" font-size="11.00" fill="gray">Middleware</text>
</g>
<g id="clust8" class="cluster"><title>cluster_\App\Http\Controllers</title>
<path fill="none" stroke="gray" d="M585,-2420C585,-2420 1083,-2420 1083,-2420 1089,-2420 1095,-2426 1095,-2432 1095,-2432 1095,-2534 1095,-2534 1095,-2540 1089,-2546 1083,-2546 1083,-2546 585,-2546 585,-2546 579,-2546 573,-2540 573,-2534 573,-2534 573,-2432 573,-2432 573,-2426 579,-2420 585,-2420"/>
<text text-anchor="middle" x="834" y="-2533.2" font-family="Times,serif" font-size="11.00" fill="gray">Controllers</text>
</g>
<g id="clust9" class="cluster"><title>cluster_\App\Console</title>
<path fill="none" stroke="gray" d="M999,-1426C999,-1426 1049,-1426 1049,-1426 1055,-1426 1061,-1432 1061,-1438 1061,-1438 1061,-1486 1061,-1486 1061,-1492 1055,-1498 1049,-1498 1049,-1498 999,-1498 999,-1498 993,-1498 987,-1492 987,-1486 987,-1486 987,-1438 987,-1438 987,-1432 993,-1426 999,-1426"/>
<text text-anchor="middle" x="1024" y="-1485.2" font-family="Times,serif" font-size="11.00" fill="gray">Console</text>
</g>
<g id="clust10" class="cluster"><title>cluster_\App\Providers</title>
<path fill="none" stroke="gray" d="M938,-1130C938,-1130 1110,-1130 1110,-1130 1116,-1130 1122,-1136 1122,-1142 1122,-1142 1122,-1406 1122,-1406 1122,-1412 1116,-1418 1110,-1418 1110,-1418 938,-1418 938,-1418 932,-1418 926,-1412 926,-1406 926,-1406 926,-1142 926,-1142 926,-1136 932,-1130 938,-1130"/>
<text text-anchor="middle" x="1024" y="-1405.2" font-family="Times,serif" font-size="11.00" fill="gray">Providers</text>
</g>
<!-- \\App\\Models\\Helper -->
<g id="node1" class="node"><title>\\App\\Models\\Helper</title>
<polygon fill="none" stroke="black" points="1052.5,-1738 995.5,-1738 995.5,-1702 1052.5,-1702 1052.5,-1738"/>
<text text-anchor="middle" x="1024" y="-1717.2" font-family="Courier,monospace" font-size="11.00">Helper</text>
</g>
<!-- \\Illuminate\\Database\\Eloquent\\Model -->
<g id="node37" class="node"><title>\\Illuminate\\Database\\Eloquent\\Model</title>
<ellipse fill="none" stroke="black" cx="623" cy="-450" rx="144.075" ry="18"/>
<text text-anchor="middle" x="623" y="-446.3" font-family="Times,serif" font-size="14.00" fill="gray">\Illuminate\Database\Eloquent\Model</text>
</g>
<!-- \\App\\Models\\Helper&#45;&gt;\\Illuminate\\Database\\Eloquent\\Model -->
<g id="edge10" class="edge"><title>\\App\\Models\\Helper&#45;&gt;\\Illuminate\\Database\\Eloquent\\Model</title>
<path fill="none" stroke="black" d="M995.318,-1720.47C972.887,-1719.21 942.405,-1713.46 926,-1693 841.352,-1587.45 954.739,-575.514 862,-477 825.467,-438.192 765.857,-431.475 715.436,-434.444"/>
<polygon fill="none" stroke="black" points="714.877,-430.975 705.156,-435.188 715.383,-437.957 714.877,-430.975"/>
</g>
<!-- \\App\\Models\\User -->
<g id="node2" class="node"><title>\\App\\Models\\User</title>
<polygon fill="none" stroke="black" points="1051,-1684 997,-1684 997,-1648 1051,-1648 1051,-1684"/>
<text text-anchor="middle" x="1024" y="-1663.2" font-family="Courier,monospace" font-size="11.00">User</text>
</g>
<!-- \\App\\Models\\User&#45;&gt;\\Illuminate\\Database\\Eloquent\\Model -->
<g id="edge11" class="edge"><title>\\App\\Models\\User&#45;&gt;\\Illuminate\\Database\\Eloquent\\Model</title>
<path fill="none" stroke="black" d="M996.667,-1666.53C974.133,-1665.42 942.758,-1659.84 926,-1639 763.955,-1437.45 1039.49,-665.088 862,-477 825.486,-438.307 766.028,-431.544 715.677,-434.461"/>
<polygon fill="none" stroke="black" points="715.135,-430.991 705.41,-435.195 715.634,-437.973 715.135,-430.991"/>
</g>
<!-- \\App\\Models\\Report -->
<g id="node3" class="node"><title>\\App\\Models\\Report</title>
<polygon fill="none" stroke="black" points="1052.5,-1630 995.5,-1630 995.5,-1594 1052.5,-1594 1052.5,-1630"/>
<text text-anchor="middle" x="1024" y="-1609.2" font-family="Courier,monospace" font-size="11.00">Report</text>
</g>
<!-- \\App\\Models\\Report&#45;&gt;\\Illuminate\\Database\\Eloquent\\Model -->
<g id="edge12" class="edge"><title>\\App\\Models\\Report&#45;&gt;\\Illuminate\\Database\\Eloquent\\Model</title>
<path fill="none" stroke="black" d="M995.266,-1611.54C972.803,-1609.54 942.302,-1602.82 926,-1582 774.349,-1388.35 1031.07,-655.651 862,-477 825.498,-438.429 766.19,-431.621 715.912,-434.484"/>
<polygon fill="none" stroke="black" points="715.388,-431.012 705.659,-435.207 715.88,-437.995 715.388,-431.012"/>
</g>
<!-- \\App\\Models\\Test -->
<g id="node4" class="node"><title>\\App\\Models\\Test</title>
<polygon fill="none" stroke="black" points="1051,-1846 997,-1846 997,-1810 1051,-1810 1051,-1846"/>
<text text-anchor="middle" x="1024" y="-1825.2" font-family="Courier,monospace" font-size="11.00">Test</text>
</g>
<!-- \\App\\Models\\Test&#45;&gt;\\Illuminate\\Database\\Eloquent\\Model -->
<g id="edge13" class="edge"><title>\\App\\Models\\Test&#45;&gt;\\Illuminate\\Database\\Eloquent\\Model</title>
<path fill="none" stroke="black" d="M996.633,-1828.55C974.076,-1827.46 942.688,-1821.9 926,-1801 834.1,-1685.91 962.724,-584.457 862,-477 825.407,-437.961 765.473,-431.345 714.906,-434.421"/>
<polygon fill="none" stroke="black" points="714.642,-430.931 704.927,-435.159 715.158,-437.912 714.642,-430.931"/>
</g>
<!-- \\App\\Models\\TestData -->
<g id="node5" class="node"><title>\\App\\Models\\TestData</title>
<polygon fill="none" stroke="black" points="1059.5,-1792 988.5,-1792 988.5,-1756 1059.5,-1756 1059.5,-1792"/>
<text text-anchor="middle" x="1024" y="-1771.2" font-family="Courier,monospace" font-size="11.00">TestData</text>
</g>
<!-- \\App\\Models\\TestData&#45;&gt;\\Illuminate\\Database\\Eloquent\\Model -->
<g id="edge14" class="edge"><title>\\App\\Models\\TestData&#45;&gt;\\Illuminate\\Database\\Eloquent\\Model</title>
<path fill="none" stroke="black" d="M988.356,-1773.96C966.912,-1771.93 940.744,-1765.43 926,-1747 837.726,-1636.68 958.731,-579.985 862,-477 825.51,-438.151 765.901,-431.435 715.468,-434.414"/>
<polygon fill="none" stroke="black" points="714.906,-430.945 705.186,-435.16 715.413,-437.927 714.906,-430.945"/>
</g>
<!-- \\App\\Exceptions\\Handler -->
<g id="node6" class="node"><title>\\App\\Exceptions\\Handler</title>
<polygon fill="none" stroke="black" points="1056,-1550 992,-1550 992,-1514 1056,-1514 1056,-1550"/>
<text text-anchor="middle" x="1024" y="-1529.2" font-family="Courier,monospace" font-size="11.00">Handler</text>
</g>
<!-- \\Illuminate\\Foundation\\Exceptions\\Handler -->
<g id="node38" class="node"><title>\\Illuminate\\Foundation\\Exceptions\\Handler</title>
<ellipse fill="none" stroke="black" cx="623" cy="-396" rx="164.371" ry="18"/>
<text text-anchor="middle" x="623" y="-392.3" font-family="Times,serif" font-size="14.00" fill="gray">\Illuminate\Foundation\Exceptions\Handler</text>
</g>
<!-- \\App\\Exceptions\\Handler&#45;&gt;\\Illuminate\\Foundation\\Exceptions\\Handler -->
<g id="edge15" class="edge"><title>\\App\\Exceptions\\Handler&#45;&gt;\\Illuminate\\Foundation\\Exceptions\\Handler</title>
<path fill="none" stroke="black" d="M991.615,-1531.17C969.602,-1528.77 941.446,-1521.7 926,-1502 777.774,-1312.99 1027.22,-597.347 862,-423 826.743,-385.796 770.263,-378.159 721.171,-380.241"/>
<polygon fill="none" stroke="black" points="720.928,-376.749 711.139,-380.804 721.319,-383.738 720.928,-376.749"/>
</g>
<!-- \\App\\Http\\Requests\\ReportRequest -->
<g id="node7" class="node"><title>\\App\\Http\\Requests\\ReportRequest</title>
<polygon fill="none" stroke="black" points="1076,-2384 972,-2384 972,-2348 1076,-2348 1076,-2384"/>
<text text-anchor="middle" x="1024" y="-2363.2" font-family="Courier,monospace" font-size="11.00">ReportRequest</text>
</g>
<!-- \\Illuminate\\Foundation\\Http\\FormRequest -->
<g id="node40" class="node"><title>\\Illuminate\\Foundation\\Http\\FormRequest</title>
<ellipse fill="none" stroke="black" cx="623" cy="-666" rx="160.572" ry="18"/>
<text text-anchor="middle" x="623" y="-662.3" font-family="Times,serif" font-size="14.00" fill="gray">\Illuminate\Foundation\Http\FormRequest</text>
</g>
<!-- \\App\\Http\\Requests\\ReportRequest&#45;&gt;\\Illuminate\\Foundation\\Http\\FormRequest -->
<g id="edge17" class="edge"><title>\\App\\Http\\Requests\\ReportRequest&#45;&gt;\\Illuminate\\Foundation\\Http\\FormRequest</title>
<path fill="none" stroke="black" d="M971.932,-2363.63C954.704,-2360.11 937.059,-2352.99 926,-2339 812.137,-2194.99 988.298,-821.233 862,-688 823.528,-647.415 759.605,-643.464 707.689,-648.823"/>
<polygon fill="none" stroke="black" points="707.006,-645.379 697.477,-650.011 707.815,-652.332 707.006,-645.379"/>
</g>
<!-- \\App\\Http\\Requests\\UserRequest -->
<g id="node8" class="node"><title>\\App\\Http\\Requests\\UserRequest</title>
<polygon fill="none" stroke="black" points="1069.5,-2330 978.5,-2330 978.5,-2294 1069.5,-2294 1069.5,-2330"/>
<text text-anchor="middle" x="1024" y="-2309.2" font-family="Courier,monospace" font-size="11.00">UserRequest</text>
</g>
<!-- \\App\\Http\\Requests\\UserRequest&#45;&gt;\\Illuminate\\Foundation\\Http\\FormRequest -->
<g id="edge18" class="edge"><title>\\App\\Http\\Requests\\UserRequest&#45;&gt;\\Illuminate\\Foundation\\Http\\FormRequest</title>
<path fill="none" stroke="black" d="M978.382,-2309.35C959.186,-2305.76 938.356,-2298.07 926,-2282 817.955,-2141.48 984.034,-816.556 862,-688 823.5,-647.442 759.578,-643.489 707.67,-648.841"/>
<polygon fill="none" stroke="black" points="706.989,-645.396 697.46,-650.027 707.797,-652.349 706.989,-645.396"/>
</g>
<!-- \\App\\Http\\Middleware\\EncryptCookies -->
<g id="node9" class="node"><title>\\App\\Http\\Middleware\\EncryptCookies</title>
<polygon fill="none" stroke="black" points="1079.5,-2250 968.5,-2250 968.5,-2214 1079.5,-2214 1079.5,-2250"/>
<text text-anchor="middle" x="1024" y="-2229.2" font-family="Courier,monospace" font-size="11.00">EncryptCookies</text>
</g>
<!-- \\Illuminate\\Cookie\\Middleware\\EncryptCookies -->
<g id="node41" class="node"><title>\\Illuminate\\Cookie\\Middleware\\EncryptCookies</title>
<ellipse fill="none" stroke="black" cx="623" cy="-612" rx="181.968" ry="18"/>
<text text-anchor="middle" x="623" y="-608.3" font-family="Times,serif" font-size="14.00" fill="gray">\Illuminate\Cookie\Middleware\EncryptCookies</text>
</g>
<!-- \\App\\Http\\Middleware\\EncryptCookies&#45;&gt;\\Illuminate\\Cookie\\Middleware\\EncryptCookies -->
<g id="edge19" class="edge"><title>\\App\\Http\\Middleware\\EncryptCookies&#45;&gt;\\Illuminate\\Cookie\\Middleware\\EncryptCookies</title>
<path fill="none" stroke="black" d="M968.397,-2228.84C952.33,-2225.09 936.313,-2218.02 926,-2205 817.847,-2068.51 980.62,-766.498 862,-639 827.754,-602.191 772.772,-594.128 724.278,-595.868"/>
<polygon fill="none" stroke="black" points="723.85,-592.385 714.038,-596.381 724.201,-599.376 723.85,-592.385"/>
</g>
<!-- \\App\\Http\\Middleware\\VerifyCsrfToken -->
<g id="node10" class="node"><title>\\App\\Http\\Middleware\\VerifyCsrfToken</title>
<polygon fill="none" stroke="black" points="1083,-2196 965,-2196 965,-2160 1083,-2160 1083,-2196"/>
<text text-anchor="middle" x="1024" y="-2175.2" font-family="Courier,monospace" font-size="11.00">VerifyCsrfToken</text>
</g>
<!-- \\Illuminate\\Foundation\\Http\\Middleware\\VerifyCsrfToken -->
<g id="node42" class="node"><title>\\Illuminate\\Foundation\\Http\\Middleware\\VerifyCsrfToken</title>
<ellipse fill="none" stroke="black" cx="623" cy="-558" rx="218.261" ry="18"/>
<text text-anchor="middle" x="623" y="-554.3" font-family="Times,serif" font-size="14.00" fill="gray">\Illuminate\Foundation\Http\Middleware\VerifyCsrfToken</text>
</g>
<!-- \\App\\Http\\Middleware\\VerifyCsrfToken&#45;&gt;\\Illuminate\\Foundation\\Http\\Middleware\\VerifyCsrfToken -->
<g id="edge20" class="edge"><title>\\App\\Http\\Middleware\\VerifyCsrfToken&#45;&gt;\\Illuminate\\Foundation\\Http\\Middleware\\VerifyCsrfToken</title>
<path fill="none" stroke="black" d="M964.849,-2173.95C950.001,-2170.01 935.554,-2163.06 926,-2151 817.847,-2014.51 980.62,-712.498 862,-585 855.994,-578.545 849.35,-572.973 842.216,-568.184"/>
<polygon fill="none" stroke="black" points="843.978,-565.159 833.624,-562.915 840.319,-571.126 843.978,-565.159"/>
</g>
<!-- \\App\\Http\\Middleware\\BeforeMiddleware -->
<g id="node11" class="node"><title>\\App\\Http\\Middleware\\BeforeMiddleware</title>
<polygon fill="none" stroke="black" points="1086.5,-2142 961.5,-2142 961.5,-2106 1086.5,-2106 1086.5,-2142"/>
<text text-anchor="middle" x="1024" y="-2121.2" font-family="Courier,monospace" font-size="11.00">BeforeMiddleware</text>
</g>
<!-- \\App\\Http\\Middleware\\RedirectIfAuthenticated -->
<g id="node12" class="node"><title>\\App\\Http\\Middleware\\RedirectIfAuthenticated</title>
<polygon fill="none" stroke="black" points="1110,-2088 938,-2088 938,-2052 1110,-2052 1110,-2088"/>
<text text-anchor="middle" x="1024" y="-2067.2" font-family="Courier,monospace" font-size="11.00">RedirectIfAuthenticated</text>
</g>
<!-- \\App\\Http\\Middleware\\ApiMiddleware -->
<g id="node13" class="node"><title>\\App\\Http\\Middleware\\ApiMiddleware</title>
<polygon fill="none" stroke="black" points="1076,-2034 972,-2034 972,-1998 1076,-1998 1076,-2034"/>
<text text-anchor="middle" x="1024" y="-2013.2" font-family="Courier,monospace" font-size="11.00">ApiMiddleware</text>
</g>
<!-- \\App\\Http\\Middleware\\AfterMiddleware -->
<g id="node14" class="node"><title>\\App\\Http\\Middleware\\AfterMiddleware</title>
<polygon fill="none" stroke="black" points="1083,-1980 965,-1980 965,-1944 1083,-1944 1083,-1980"/>
<text text-anchor="middle" x="1024" y="-1959.2" font-family="Courier,monospace" font-size="11.00">AfterMiddleware</text>
</g>
<!-- \\App\\Http\\Controllers\\Controller -->
<g id="node15" class="node"><title>\\App\\Http\\Controllers\\Controller</title>
<polygon fill="none" stroke="black" points="665,-2491 581,-2491 581,-2455 665,-2455 665,-2491"/>
<text text-anchor="middle" x="623" y="-2470.2" font-family="Courier,monospace" font-size="11.00">Controller</text>
</g>
<!-- \\Illuminate\\Routing\\Controller -->
<g id="node43" class="node"><title>\\Illuminate\\Routing\\Controller</title>
<ellipse fill="none" stroke="black" cx="156" cy="-2473" rx="118.879" ry="18"/>
<text text-anchor="middle" x="156" y="-2469.3" font-family="Times,serif" font-size="14.00" fill="gray">\Illuminate\Routing\Controller</text>
</g>
<!-- \\App\\Http\\Controllers\\Controller&#45;&gt;\\Illuminate\\Routing\\Controller -->
<g id="edge21" class="edge"><title>\\App\\Http\\Controllers\\Controller&#45;&gt;\\Illuminate\\Routing\\Controller</title>
<path fill="none" stroke="black" d="M580.734,-2473C515.085,-2473 384.169,-2473 285.133,-2473"/>
<polygon fill="none" stroke="black" points="285.046,-2469.5 275.046,-2473 285.046,-2476.5 285.046,-2469.5"/>
</g>
<!-- \\App\\Http\\Controllers\\ApiController -->
<g id="node16" class="node"><title>\\App\\Http\\Controllers\\ApiController</title>
<polygon fill="none" stroke="black" points="1076,-2518 972,-2518 972,-2482 1076,-2482 1076,-2518"/>
<text text-anchor="middle" x="1024" y="-2497.2" font-family="Courier,monospace" font-size="11.00">ApiController</text>
</g>
<!-- \\App\\Http\\Controllers\\ApiController&#45;&gt;\\App\\Http\\Controllers\\Controller -->
<g id="edge22" class="edge"><title>\\App\\Http\\Controllers\\ApiController&#45;&gt;\\App\\Http\\Controllers\\Controller</title>
<path fill="none" stroke="black" d="M971.655,-2496.53C895.166,-2491.35 752.114,-2481.67 675.523,-2476.49"/>
<polygon fill="none" stroke="black" points="675.384,-2472.97 665.17,-2475.79 674.911,-2479.95 675.384,-2472.97"/>
</g>
<!-- \\App\\Http\\Controllers\\ReportController -->
<g id="node17" class="node"><title>\\App\\Http\\Controllers\\ReportController</title>
<polygon fill="none" stroke="black" points="1086.5,-2464 961.5,-2464 961.5,-2428 1086.5,-2428 1086.5,-2464"/>
<text text-anchor="middle" x="1024" y="-2443.2" font-family="Courier,monospace" font-size="11.00">ReportController</text>
</g>
<!-- \\App\\Http\\Controllers\\ReportController&#45;&gt;\\App\\Http\\Controllers\\Controller -->
<g id="edge23" class="edge"><title>\\App\\Http\\Controllers\\ReportController&#45;&gt;\\App\\Http\\Controllers\\Controller</title>
<path fill="none" stroke="black" d="M961.094,-2450.19C882.545,-2455.5 748.511,-2464.57 675.354,-2469.52"/>
<polygon fill="none" stroke="black" points="674.757,-2466.06 665.016,-2470.22 675.23,-2473.04 674.757,-2466.06"/>
</g>
<!-- \\App\\Http\\Kernel -->
<g id="node18" class="node"><title>\\App\\Http\\Kernel</title>
<polygon fill="none" stroke="black" points="1052.5,-1926 995.5,-1926 995.5,-1890 1052.5,-1890 1052.5,-1926"/>
<text text-anchor="middle" x="1024" y="-1905.2" font-family="Courier,monospace" font-size="11.00">Kernel</text>
</g>
<!-- \\Illuminate\\Foundation\\Http\\Kernel -->
<g id="node39" class="node"><title>\\Illuminate\\Foundation\\Http\\Kernel</title>
<ellipse fill="none" stroke="black" cx="623" cy="-504" rx="136.476" ry="18"/>
<text text-anchor="middle" x="623" y="-500.3" font-family="Times,serif" font-size="14.00" fill="gray">\Illuminate\Foundation\Http\Kernel</text>
</g>
<!-- \\App\\Http\\Kernel&#45;&gt;\\Illuminate\\Foundation\\Http\\Kernel -->
<g id="edge16" class="edge"><title>\\App\\Http\\Kernel&#45;&gt;\\Illuminate\\Foundation\\Http\\Kernel</title>
<path fill="none" stroke="black" d="M995.21,-1907.58C972.713,-1905.61 942.194,-1898.9 926,-1878 834.232,-1759.55 964.424,-640.361 862,-531 824.89,-491.377 763.737,-485.144 712.713,-488.551"/>
<polygon fill="none" stroke="black" points="712.343,-485.069 702.653,-489.354 712.9,-492.047 712.343,-485.069"/>
</g>
<!-- \\App\\Console\\Kernel -->
<g id="node19" class="node"><title>\\App\\Console\\Kernel</title>
<polygon fill="none" stroke="black" points="1052.5,-1470 995.5,-1470 995.5,-1434 1052.5,-1434 1052.5,-1470"/>
<text text-anchor="middle" x="1024" y="-1449.2" font-family="Courier,monospace" font-size="11.00">Kernel</text>
</g>
<!-- \\Illuminate\\Foundation\\Console\\Kernel -->
<g id="node44" class="node"><title>\\Illuminate\\Foundation\\Console\\Kernel</title>
<ellipse fill="none" stroke="black" cx="623" cy="-342" rx="149.473" ry="18"/>
<text text-anchor="middle" x="623" y="-338.3" font-family="Times,serif" font-size="14.00" fill="gray">\Illuminate\Foundation\Console\Kernel</text>
</g>
<!-- \\App\\Console\\Kernel&#45;&gt;\\Illuminate\\Foundation\\Console\\Kernel -->
<g id="edge24" class="edge"><title>\\App\\Console\\Kernel&#45;&gt;\\Illuminate\\Foundation\\Console\\Kernel</title>
<path fill="none" stroke="black" d="M995.281,-1451.52C972.827,-1449.52 942.332,-1442.79 926,-1422 781.198,-1237.63 1023.38,-539.043 862,-369 825.845,-330.905 767.436,-323.827 717.531,-326.433"/>
<polygon fill="none" stroke="black" points="717.096,-322.954 707.347,-327.103 717.555,-329.939 717.096,-322.954"/>
</g>
<!-- \\App\\Providers\\AppServiceProvider -->
<g id="node20" class="node"><title>\\App\\Providers\\AppServiceProvider</title>
<polygon fill="none" stroke="black" points="1093,-1336 955,-1336 955,-1300 1093,-1300 1093,-1336"/>
<text text-anchor="middle" x="1024" y="-1315.2" font-family="Courier,monospace" font-size="11.00">AppServiceProvider</text>
</g>
<!-- \\Illuminate\\Support\\ServiceProvider -->
<g id="node45" class="node"><title>\\Illuminate\\Support\\ServiceProvider</title>
<ellipse fill="none" stroke="black" cx="623" cy="-288" rx="139.175" ry="18"/>
<text text-anchor="middle" x="623" y="-284.3" font-family="Times,serif" font-size="14.00" fill="gray">\Illuminate\Support\ServiceProvider</text>
</g>
<!-- \\App\\Providers\\AppServiceProvider&#45;&gt;\\Illuminate\\Support\\ServiceProvider -->
<g id="edge25" class="edge"><title>\\App\\Providers\\AppServiceProvider&#45;&gt;\\Illuminate\\Support\\ServiceProvider</title>
<path fill="none" stroke="black" d="M954.532,-1310.44C943.55,-1306.27 933.386,-1300.09 926,-1291 788.924,-1122.32 1012,-472.298 862,-315 825.083,-276.287 765.173,-269.663 714.698,-272.653"/>
<polygon fill="none" stroke="black" points="714.131,-269.185 704.411,-273.401 714.639,-276.167 714.131,-269.185"/>
</g>
<!-- \\App\\Providers\\AuthServiceProvider -->
<g id="node21" class="node"><title>\\App\\Providers\\AuthServiceProvider</title>
<polygon fill="none" stroke="black" points="1096.5,-1282 951.5,-1282 951.5,-1246 1096.5,-1246 1096.5,-1282"/>
<text text-anchor="middle" x="1024" y="-1261.2" font-family="Courier,monospace" font-size="11.00">AuthServiceProvider</text>
</g>
<!-- \\Illuminate\\Foundation\\Support\\Providers\\AuthServiceProvider -->
<g id="node46" class="node"><title>\\Illuminate\\Foundation\\Support\\Providers\\AuthServiceProvider</title>
<ellipse fill="none" stroke="black" cx="623" cy="-234" rx="235.058" ry="18"/>
<text text-anchor="middle" x="623" y="-230.3" font-family="Times,serif" font-size="14.00" fill="gray">\Illuminate\Foundation\Support\Providers\AuthServiceProvider</text>
</g>
<!-- \\App\\Providers\\AuthServiceProvider&#45;&gt;\\Illuminate\\Foundation\\Support\\Providers\\AuthServiceProvider -->
<g id="edge26" class="edge"><title>\\App\\Providers\\AuthServiceProvider&#45;&gt;\\Illuminate\\Foundation\\Support\\Providers\\AuthServiceProvider</title>
<path fill="none" stroke="black" d="M951.119,-1255.07C941.457,-1250.95 932.615,-1245.14 926,-1237 788.924,-1068.32 1012,-418.298 862,-261 857.035,-255.793 851.654,-251.167 845.936,-247.067"/>
<polygon fill="none" stroke="black" points="847.61,-243.979 837.327,-241.429 843.775,-249.836 847.61,-243.979"/>
</g>
<!-- \\App\\Providers\\RouteServiceProvider -->
<g id="node22" class="node"><title>\\App\\Providers\\RouteServiceProvider</title>
<polygon fill="none" stroke="black" points="1100,-1228 948,-1228 948,-1192 1100,-1192 1100,-1228"/>
<text text-anchor="middle" x="1024" y="-1207.2" font-family="Courier,monospace" font-size="11.00">RouteServiceProvider</text>
</g>
<!-- \\Illuminate\\Foundation\\Support\\Providers\\RouteServiceProvider -->
<g id="node47" class="node"><title>\\Illuminate\\Foundation\\Support\\Providers\\RouteServiceProvider</title>
<ellipse fill="none" stroke="black" cx="623" cy="-180" rx="238.558" ry="18"/>
<text text-anchor="middle" x="623" y="-176.3" font-family="Times,serif" font-size="14.00" fill="gray">\Illuminate\Foundation\Support\Providers\RouteServiceProvider</text>
</g>
<!-- \\App\\Providers\\RouteServiceProvider&#45;&gt;\\Illuminate\\Foundation\\Support\\Providers\\RouteServiceProvider -->
<g id="edge27" class="edge"><title>\\App\\Providers\\RouteServiceProvider&#45;&gt;\\Illuminate\\Foundation\\Support\\Providers\\RouteServiceProvider</title>
<path fill="none" stroke="black" d="M947.773,-1199.56C939.424,-1195.56 931.843,-1190.19 926,-1183 788.924,-1014.32 1012,-364.298 862,-207 857.292,-202.063 852.209,-197.647 846.82,-193.707"/>
<polygon fill="none" stroke="black" points="848.371,-190.535 838.109,-187.9 844.488,-196.359 848.371,-190.535"/>
</g>
<!-- \\App\\Providers\\BroadcastServiceProvider -->
<g id="node23" class="node"><title>\\App\\Providers\\BroadcastServiceProvider</title>
<polygon fill="none" stroke="black" points="1113.5,-1390 934.5,-1390 934.5,-1354 1113.5,-1354 1113.5,-1390"/>
<text text-anchor="middle" x="1024" y="-1369.2" font-family="Courier,monospace" font-size="11.00">BroadcastServiceProvider</text>
</g>
<!-- \\App\\Providers\\BroadcastServiceProvider&#45;&gt;\\Illuminate\\Support\\ServiceProvider -->
<g id="edge28" class="edge"><title>\\App\\Providers\\BroadcastServiceProvider&#45;&gt;\\Illuminate\\Support\\ServiceProvider</title>
<path fill="none" stroke="black" d="M934.903,-1353.7C931.638,-1351.15 928.64,-1348.26 926,-1345 781.676,-1166.78 1019.98,-481.236 862,-315 825.005,-276.072 764.77,-269.549 714.156,-272.642"/>
<polygon fill="none" stroke="black" points="713.885,-269.152 704.171,-273.382 714.402,-276.133 713.885,-269.152"/>
</g>
<!-- \\App\\Providers\\EventServiceProvider -->
<g id="node24" class="node"><title>\\App\\Providers\\EventServiceProvider</title>
<polygon fill="none" stroke="black" points="1100,-1174 948,-1174 948,-1138 1100,-1138 1100,-1174"/>
<text text-anchor="middle" x="1024" y="-1153.2" font-family="Courier,monospace" font-size="11.00">EventServiceProvider</text>
</g>
<!-- \\Illuminate\\Foundation\\Support\\Providers\\EventServiceProvider -->
<g id="node48" class="node"><title>\\Illuminate\\Foundation\\Support\\Providers\\EventServiceProvider</title>
<ellipse fill="none" stroke="black" cx="623" cy="-126" rx="237.758" ry="18"/>
<text text-anchor="middle" x="623" y="-122.3" font-family="Times,serif" font-size="14.00" fill="gray">\Illuminate\Foundation\Support\Providers\EventServiceProvider</text>
</g>
<!-- \\App\\Providers\\EventServiceProvider&#45;&gt;\\Illuminate\\Foundation\\Support\\Providers\\EventServiceProvider -->
<g id="edge29" class="edge"><title>\\App\\Providers\\EventServiceProvider&#45;&gt;\\Illuminate\\Foundation\\Support\\Providers\\EventServiceProvider</title>
<path fill="none" stroke="black" d="M947.958,-1149.57C939.58,-1145.98 931.941,-1140.96 926,-1134 784.186,-967.822 1012.74,-311.126 862,-153 857.132,-147.894 851.864,-143.346 846.271,-139.304"/>
<polygon fill="none" stroke="black" points="848.124,-136.334 837.852,-133.74 844.264,-142.173 848.124,-136.334"/>
</g>
<!-- \\ExampleTest -->
<g id="node25" class="node"><title>\\ExampleTest</title>
<polygon fill="none" stroke="black" points="1069.5,-1114 978.5,-1114 978.5,-1078 1069.5,-1078 1069.5,-1114"/>
<text text-anchor="middle" x="1024" y="-1093.2" font-family="Courier,monospace" font-size="11.00">ExampleTest</text>
</g>
<!-- \\TestCase -->
<g id="node26" class="node"><title>\\TestCase</title>
<polygon fill="none" stroke="black" points="665,-1114 581,-1114 581,-1078 665,-1078 665,-1114"/>
<text text-anchor="start" x="589" y="-1099.2" font-family="Courier,monospace" font-size="11.00">«abstract»</text>
<text text-anchor="start" x="595.5" y="-1087.2" font-family="Courier,monospace" font-size="11.00">TestCase</text>
</g>
<!-- \\ExampleTest&#45;&gt;\\TestCase -->
<g id="edge1" class="edge"><title>\\ExampleTest&#45;&gt;\\TestCase</title>
<path fill="none" stroke="black" d="M978.391,-1096C903.755,-1096 754.017,-1096 675.2,-1096"/>
<polygon fill="none" stroke="black" points="675.027,-1092.5 665.027,-1096 675.026,-1099.5 675.027,-1092.5"/>
</g>
<!-- \\Illuminate\\Foundation\\Testing\\TestCase -->
<g id="node34" class="node"><title>\\Illuminate\\Foundation\\Testing\\TestCase</title>
<ellipse fill="none" stroke="black" cx="156" cy="-1096" rx="155.173" ry="18"/>
<text text-anchor="middle" x="156" y="-1092.3" font-family="Times,serif" font-size="14.00" fill="gray">\Illuminate\Foundation\Testing\TestCase</text>
</g>
<!-- \\TestCase&#45;&gt;\\Illuminate\\Foundation\\Testing\\TestCase -->
<g id="edge2" class="edge"><title>\\TestCase&#45;&gt;\\Illuminate\\Foundation\\Testing\\TestCase</title>
<path fill="none" stroke="black" d="M580.734,-1096C522.885,-1096 414.355,-1096 321.618,-1096"/>
<polygon fill="none" stroke="black" points="321.547,-1092.5 311.547,-1096 321.547,-1099.5 321.547,-1092.5"/>
</g>
<!-- \\DatabaseSeeder -->
<g id="node27" class="node"><title>\\DatabaseSeeder</title>
<polygon fill="none" stroke="black" points="1079.5,-952 968.5,-952 968.5,-916 1079.5,-916 1079.5,-952"/>
<text text-anchor="middle" x="1024" y="-931.2" font-family="Courier,monospace" font-size="11.00">DatabaseSeeder</text>
</g>
<!-- \\Illuminate\\Database\\Seeder -->
<g id="node35" class="node"><title>\\Illuminate\\Database\\Seeder</title>
<ellipse fill="none" stroke="black" cx="623" cy="-72" rx="110.48" ry="18"/>
<text text-anchor="middle" x="623" y="-68.3" font-family="Times,serif" font-size="14.00" fill="gray">\Illuminate\Database\Seeder</text>
</g>
<!-- \\DatabaseSeeder&#45;&gt;\\Illuminate\\Database\\Seeder -->
<g id="edge3" class="edge"><title>\\DatabaseSeeder&#45;&gt;\\Illuminate\\Database\\Seeder</title>
<path fill="none" stroke="black" d="M968.437,-930.543C952.471,-926.765 936.505,-919.749 926,-907 811.462,-767.991 987.184,-228.504 862,-99 822.644,-58.2858 757.817,-53.2457 705.751,-57.4478"/>
<polygon fill="none" stroke="black" points="705.151,-53.9886 695.519,-58.4036 705.802,-60.9582 705.151,-53.9886"/>
</g>
<!-- \\TestDataTableSeeder -->
<g id="node28" class="node"><title>\\TestDataTableSeeder</title>
<polygon fill="none" stroke="black" points="1096.5,-1060 951.5,-1060 951.5,-1024 1096.5,-1024 1096.5,-1060"/>
<text text-anchor="middle" x="1024" y="-1039.2" font-family="Courier,monospace" font-size="11.00">TestDataTableSeeder</text>
</g>
<!-- \\TestDataTableSeeder&#45;&gt;\\Illuminate\\Database\\Seeder -->
<g id="edge4" class="edge"><title>\\TestDataTableSeeder&#45;&gt;\\Illuminate\\Database\\Seeder</title>
<path fill="none" stroke="black" d="M951.15,-1033.04C941.483,-1028.93 932.632,-1023.13 926,-1015 796.975,-856.919 1003.14,-246.37 862,-99 822.699,-57.9627 757.547,-53.0409 705.338,-57.3722"/>
<polygon fill="none" stroke="black" points="704.701,-53.9171 695.08,-58.3539 705.368,-60.8852 704.701,-53.9171"/>
</g>
<!-- \\ReportsTableSeeder -->
<g id="node29" class="node"><title>\\ReportsTableSeeder</title>
<polygon fill="none" stroke="black" points="1093,-1006 955,-1006 955,-970 1093,-970 1093,-1006"/>
<text text-anchor="middle" x="1024" y="-985.2" font-family="Courier,monospace" font-size="11.00">ReportsTableSeeder</text>
</g>
<!-- \\ReportsTableSeeder&#45;&gt;\\Illuminate\\Database\\Seeder -->
<g id="edge5" class="edge"><title>\\ReportsTableSeeder&#45;&gt;\\Illuminate\\Database\\Seeder</title>
<path fill="none" stroke="black" d="M954.597,-980.39C943.608,-976.223 933.425,-970.057 926,-961 804.22,-812.456 995.159,-237.436 862,-99 822.677,-58.1186 757.688,-53.1378 705.548,-57.406"/>
<polygon fill="none" stroke="black" points="704.929,-53.9489 695.303,-58.3751 705.588,-60.9177 704.929,-53.9489"/>
</g>
<!-- \\CreateTestDataTable -->
<g id="node30" class="node"><title>\\CreateTestDataTable</title>
<polygon fill="none" stroke="black" points="1096.5,-898 951.5,-898 951.5,-862 1096.5,-862 1096.5,-898"/>
<text text-anchor="middle" x="1024" y="-877.2" font-family="Courier,monospace" font-size="11.00">CreateTestDataTable</text>
</g>
<!-- \\Illuminate\\Database\\Migrations\\Migration -->
<g id="node36" class="node"><title>\\Illuminate\\Database\\Migrations\\Migration</title>
<ellipse fill="none" stroke="black" cx="623" cy="-18" rx="163.571" ry="18"/>
<text text-anchor="middle" x="623" y="-14.3" font-family="Times,serif" font-size="14.00" fill="gray">\Illuminate\Database\Migrations\Migration</text>
</g>
<!-- \\CreateTestDataTable&#45;&gt;\\Illuminate\\Database\\Migrations\\Migration -->
<g id="edge6" class="edge"><title>\\CreateTestDataTable&#45;&gt;\\Illuminate\\Database\\Migrations\\Migration</title>
<path fill="none" stroke="black" d="M951.216,-870.989C941.541,-866.878 932.67,-861.095 926,-853 811.462,-713.991 987.184,-174.504 862,-45 826.923,-8.71229 771.612,-0.76333 723.136,-2.43895"/>
<polygon fill="none" stroke="black" points="722.724,1.04525 712.906,-2.93586 723.064,-5.94651 722.724,1.04525"/>
</g>
<!-- \\CreateUsersTable -->
<g id="node31" class="node"><title>\\CreateUsersTable</title>
<polygon fill="none" stroke="black" points="1086.5,-844 961.5,-844 961.5,-808 1086.5,-808 1086.5,-844"/>
<text text-anchor="middle" x="1024" y="-823.2" font-family="Courier,monospace" font-size="11.00">CreateUsersTable</text>
</g>
<!-- \\CreateUsersTable&#45;&gt;\\Illuminate\\Database\\Migrations\\Migration -->
<g id="edge7" class="edge"><title>\\CreateUsersTable&#45;&gt;\\Illuminate\\Database\\Migrations\\Migration</title>
<path fill="none" stroke="black" d="M961.402,-820.607C947.902,-816.525 934.979,-809.835 926,-799 818.702,-669.523 979.212,-165.575 862,-45 826.956,-8.95045 771.93,-0.928952 723.611,-2.50241"/>
<polygon fill="none" stroke="black" points="723.238,0.984116 713.412,-2.97717 723.564,-6.00831 723.238,0.984116"/>
</g>
<!-- \\CreateReportsTable -->
<g id="node32" class="node"><title>\\CreateReportsTable</title>
<polygon fill="none" stroke="black" points="1093,-790 955,-790 955,-754 1093,-754 1093,-790"/>
<text text-anchor="middle" x="1024" y="-769.2" font-family="Courier,monospace" font-size="11.00">CreateReportsTable</text>
</g>
<!-- \\CreateReportsTable&#45;&gt;\\Illuminate\\Database\\Migrations\\Migration -->
<g id="edge8" class="edge"><title>\\CreateReportsTable&#45;&gt;\\Illuminate\\Database\\Migrations\\Migration</title>
<path fill="none" stroke="black" d="M954.722,-764.286C943.722,-760.129 933.502,-753.994 926,-745 825.939,-625.051 971.243,-156.65 862,-45 827.043,-9.2726 772.443,-1.14309 724.353,-2.57176"/>
<polygon fill="none" stroke="black" points="724.037,0.917878 714.199,-3.0152 724.343,-6.07546 724.037,0.917878"/>
</g>
<!-- \\CreateTestsTable -->
<g id="node33" class="node"><title>\\CreateTestsTable</title>
<polygon fill="none" stroke="black" points="1086.5,-736 961.5,-736 961.5,-700 1086.5,-700 1086.5,-736"/>
<text text-anchor="middle" x="1024" y="-715.2" font-family="Courier,monospace" font-size="11.00">CreateTestsTable</text>
</g>
<!-- \\CreateTestsTable&#45;&gt;\\Illuminate\\Database\\Migrations\\Migration -->
<g id="edge9" class="edge"><title>\\CreateTestsTable&#45;&gt;\\Illuminate\\Database\\Migrations\\Migration</title>
<path fill="none" stroke="black" d="M1021.41,-699.842C1012.45,-601.737 964.897,-136.065 862,-45 830.144,-16.8067 785.742,-6.83433 743.909,-5.02251"/>
<polygon fill="none" stroke="black" points="744.001,-1.52379 733.905,-4.73892 743.802,-8.52098 744.001,-1.52379"/>
</g>
</g>
</svg>
